<svg width="990" height="540" viewBox="0 0 990 540" fill="none" xmlns="http://www.w3.org/2000/svg">
  <defs>
    <linearGradient id="bg" x1="0" y1="0" x2="990" y2="540" gradientUnits="userSpaceOnUse">
      <stop offset="0" stop-color="#f2f5f9"/>
      <stop offset="0.45" stop-color="#edf2f7"/>
      <stop offset="1" stop-color="#dce8f6"/>
    </linearGradient>
    <linearGradient id="sea" x1="0" y1="0" x2="990" y2="0" gradientUnits="userSpaceOnUse">
      <stop offset="0" stop-color="#0b4c90"/>
      <stop offset="1" stop-color="#154d86"/>
    </linearGradient>
    <linearGradient id="trace" x1="0" y1="0" x2="1" y2="0">
      <stop offset="0" stop-color="#44b6ff" stop-opacity="0.05"/>
      <stop offset="0.5" stop-color="#44b6ff" stop-opacity="0.45"/>
      <stop offset="1" stop-color="#44b6ff" stop-opacity="0.1"/>
    </linearGradient>
    <radialGradient id="glow" cx="0" cy="0" r="1" gradientUnits="userSpaceOnUse" gradientTransform="translate(740 300) rotate(90) scale(180 220)">
      <stop offset="0" stop-color="#8be8ff" stop-opacity="0.55"/>
      <stop offset="1" stop-color="#8be8ff" stop-opacity="0"/>
    </radialGradient>
    <filter id="softGlow" x="-50%" y="-50%" width="200%" height="200%">
      <feGaussianBlur stdDeviation="6" result="blur"/>
      <feMerge>
        <feMergeNode in="blur"/>
        <feMergeNode in="SourceGraphic"/>
      </feMerge>
    </filter>
  </defs>

  <rect width="990" height="540" fill="url(#bg)"/>
  <ellipse cx="360" cy="70" rx="320" ry="160" fill="#ffffff" fill-opacity="0.55"/>
  <ellipse cx="360" cy="468" rx="360" ry="84" fill="#d8dfe8" fill-opacity="0.36"/>
  <rect y="290" width="990" height="31" fill="url(#sea)"/>
  <rect y="321" width="990" height="5" fill="#1f5c9f" fill-opacity="0.55"/>
  <rect y="326" width="990" height="214" fill="url(#glow)"/>

  <g opacity="0.18" stroke="#b8dfff" stroke-width="1.1">
    <path d="M34 360H160V345H240V332H355"/>
    <path d="M68 375H220V359H276V348H398V338H480"/>
    <path d="M48 396H176V382H315V365H410V352H520"/>
    <path d="M20 417H148V406H198V394H260V383H348V372H468"/>
    <path d="M132 438H236V422H342V410H466V398H584"/>
    <path d="M210 458H332V444H430V430H550V417H688"/>
    <path d="M510 348H610V334H704V319H820"/>
    <path d="M560 374H676V360H760V348H886"/>
    <path d="M540 404H654V392H738V379H874"/>
  </g>

  <g stroke="url(#trace)" stroke-width="2.1" stroke-linecap="round">
    <path d="M0 352H180V336H258V324H372V310H514V300H642"/>
    <path d="M0 390H120V372H206V360H300V346H426V332H612V320H770"/>
    <path d="M70 436H170V420H252V404H344V390H472V374H620V356H812"/>
    <path d="M238 470H332V454H440V438H570V422H742V406H914"/>
    <path d="M588 292V338H680V360H760"/>
    <path d="M734 286V334H812V354H900"/>
  </g>

  <g fill="#8fdcff" opacity="0.78" filter="url(#softGlow)">
    <circle cx="202" cy="359" r="2.2"/><circle cx="271" cy="343" r="2.4"/><circle cx="364" cy="315" r="3.2"/>
    <circle cx="585" cy="298" r="3"/><circle cx="682" cy="334" r="3.8"/><circle cx="763" cy="406" r="2.6"/>
    <circle cx="874" cy="356" r="2.3"/><circle cx="902" cy="384" r="2.3"/>
  </g>

  <g opacity="0.9" stroke="#124f8b" stroke-width="2" stroke-linecap="round" stroke-linejoin="round" fill="none">
    <path d="M789 292L804 154L819 292M798 202H810M794 234H814M790 264H818"/>
    <path d="M804 154L781 292M804 154L827 292"/>
    <path d="M781 292H827M786 246H822M789 219H819"/>

    <path d="M625 292L640 188L655 292M634 224H646M630 252H650M626 274H654"/>
    <path d="M640 188L620 292M640 188L660 292"/>
    <path d="M620 292H660M626 246H654"/>

    <path d="M495 292L507 226L519 292M502 248H512M498 268H516"/>
    <path d="M507 226L491 292M507 226L523 292"/>
    <path d="M491 292H523"/>

    <path d="M349 292L358 254L367 292M354 266H362"/>
    <path d="M358 254L346 292M358 254L370 292"/>
    <path d="M346 292H370"/>

    <path d="M318 292L325 260L332 292M323 271H327"/>
    <path d="M325 260L315 292M325 260L335 292"/>
    <path d="M315 292H335"/>
  </g>

  <g stroke="#0f4a88" stroke-width="2" fill="none" opacity="0.92">
    <path d="M330 278C428 254 515 250 624 232C700 220 795 200 990 190"/>
    <path d="M326 290C420 270 520 266 622 252C714 240 820 220 990 214"/>
    <path d="M323 301C430 282 522 282 632 272C722 264 830 246 990 238"/>
    <path d="M320 312C428 296 520 296 634 292C730 288 840 273 990 262"/>
    <path d="M317 323C428 314 520 315 636 314C734 314 844 302 990 288"/>
  </g>

  <g stroke="#ffffff" stroke-opacity="0.72" stroke-width="1.8" filter="url(#softGlow)">
    <path d="M764 310L732 296L694 328L655 296L620 344L648 381L696 360L734 392L766 342L804 360L834 310L786 280L764 310Z"/>
    <path d="M732 296L734 250L784 234L834 260L854 306L834 360L796 394L742 428L696 360"/>
    <path d="M648 381L632 430L680 472L722 446L734 392"/>
    <path d="M694 328L734 392L804 360"/>
  </g>

  <g fill="#ffffff" filter="url(#softGlow)">
    <circle cx="734" cy="250" r="7"/>
    <circle cx="784" cy="234" r="6"/>
    <circle cx="834" cy="260" r="7"/>
    <circle cx="854" cy="306" r="18"/>
    <circle cx="834" cy="360" r="11"/>
    <circle cx="796" cy="394" r="9"/>
    <circle cx="742" cy="428" r="8"/>
    <circle cx="680" cy="472" r="5"/>
    <circle cx="632" cy="430" r="4"/>
    <circle cx="648" cy="381" r="8"/>
    <circle cx="696" cy="360" r="14"/>
    <circle cx="734" cy="392" r="10"/>
    <circle cx="764" cy="310" r="8"/>
    <circle cx="732" cy="296" r="5"/>
    <circle cx="694" cy="328" r="6"/>
    <circle cx="655" cy="296" r="10"/>
    <circle cx="620" cy="344" r="4"/>
    <circle cx="804" cy="360" r="4"/>
    <circle cx="786" cy="280" r="4"/>
    <circle cx="722" cy="446" r="4"/>
  </g>

  <g opacity="0.11" stroke="#ffffff" stroke-width="1">
    <path d="M875 0V90M904 0V60M930 0V108M958 0V78"/>
    <path d="M850 28H930M856 48H964M884 72H980"/>
    <path d="M600 42V110M626 18V88M652 0V72"/>
    <path d="M570 66H650M592 90H676"/>
  </g>

  <g opacity="0.22" fill="#9edcff">
    <rect x="158" y="355" width="32" height="8" rx="2"/>
    <rect x="191" y="355" width="8" height="8" rx="2"/>
    <rect x="286" y="381" width="18" height="6" rx="2"/>
    <rect x="542" y="386" width="10" height="6" rx="2"/>
    <rect x="556" y="386" width="28" height="6" rx="2"/>
    <rect x="882" y="316" width="12" height="5" rx="2"/>
    <rect x="897" y="316" width="20" height="5" rx="2"/>
    <rect x="922" y="316" width="9" height="5" rx="2"/>
  </g>

  <g opacity="0.22" fill="#0f4a88">
    <rect x="955" y="286" width="35" height="8" rx="1"/>
    <rect x="948" y="294" width="42" height="28" rx="2"/>
  </g>
</svg>
